<mxfile host="app.diagrams.net" modified="2023-09-26T11:07:02.942Z" agent="Mozilla/5.0 (Windows NT 10.0; Win64; x64) AppleWebKit/537.36 (KHTML, like Gecko) Chrome/117.0.0.0 Safari/537.36" etag="QMjc0Jt4GglbK0X2dTj8" version="21.8.2" type="device">
  <diagram name="Страница — 1" id="s9RA3a318Ul1NT-hB2f2">
    <mxGraphModel dx="1687" dy="2098" grid="1" gridSize="10" guides="1" tooltips="1" connect="1" arrows="1" fold="1" page="1" pageScale="1" pageWidth="827" pageHeight="1169" math="0" shadow="0">
      <root>
        <mxCell id="0" />
        <mxCell id="1" parent="0" />
        <mxCell id="NA-ehe5iDD0l0HB7df4v-1" value="Пользователь" style="shape=umlActor;verticalLabelPosition=bottom;verticalAlign=top;html=1;outlineConnect=0;" vertex="1" parent="1">
          <mxGeometry x="50" y="120" width="30" height="60" as="geometry" />
        </mxCell>
        <mxCell id="NA-ehe5iDD0l0HB7df4v-2" value="Приложение" style="shape=umlActor;verticalLabelPosition=bottom;verticalAlign=top;html=1;outlineConnect=0;" vertex="1" parent="1">
          <mxGeometry x="750" y="120" width="30" height="60" as="geometry" />
        </mxCell>
        <mxCell id="NA-ehe5iDD0l0HB7df4v-4" value="" style="endArrow=block;endSize=16;endFill=0;html=1;rounded=0;" edge="1" parent="1" target="NA-ehe5iDD0l0HB7df4v-57">
          <mxGeometry width="160" relative="1" as="geometry">
            <mxPoint x="70" y="150" as="sourcePoint" />
            <mxPoint x="230" y="150" as="targetPoint" />
          </mxGeometry>
        </mxCell>
        <mxCell id="NA-ehe5iDD0l0HB7df4v-22" value="" style="endArrow=block;endSize=16;endFill=0;html=1;rounded=0;exitX=0.5;exitY=0.5;exitDx=0;exitDy=0;exitPerimeter=0;" edge="1" parent="1" source="NA-ehe5iDD0l0HB7df4v-2">
          <mxGeometry width="160" relative="1" as="geometry">
            <mxPoint x="750" y="150" as="sourcePoint" />
            <mxPoint x="650" y="153.22580645161293" as="targetPoint" />
          </mxGeometry>
        </mxCell>
        <mxCell id="NA-ehe5iDD0l0HB7df4v-29" value="" style="endArrow=none;html=1;rounded=0;entryX=0.5;entryY=1;entryDx=0;entryDy=0;" edge="1" parent="1" target="NA-ehe5iDD0l0HB7df4v-34">
          <mxGeometry width="50" height="50" relative="1" as="geometry">
            <mxPoint x="230" y="150" as="sourcePoint" />
            <mxPoint x="340" y="40" as="targetPoint" />
          </mxGeometry>
        </mxCell>
        <mxCell id="NA-ehe5iDD0l0HB7df4v-30" value="" style="endArrow=none;html=1;rounded=0;" edge="1" parent="1">
          <mxGeometry width="50" height="50" relative="1" as="geometry">
            <mxPoint x="230" y="150" as="sourcePoint" />
            <mxPoint x="360" y="250" as="targetPoint" />
          </mxGeometry>
        </mxCell>
        <mxCell id="NA-ehe5iDD0l0HB7df4v-31" value="" style="endArrow=none;html=1;rounded=0;exitX=1;exitY=0.692;exitDx=0;exitDy=0;exitPerimeter=0;" edge="1" parent="1" source="NA-ehe5iDD0l0HB7df4v-34">
          <mxGeometry width="50" height="50" relative="1" as="geometry">
            <mxPoint x="560" y="50" as="sourcePoint" />
            <mxPoint x="650" y="150" as="targetPoint" />
          </mxGeometry>
        </mxCell>
        <mxCell id="NA-ehe5iDD0l0HB7df4v-32" value="" style="endArrow=none;html=1;rounded=0;" edge="1" parent="1">
          <mxGeometry width="50" height="50" relative="1" as="geometry">
            <mxPoint x="610" y="270" as="sourcePoint" />
            <mxPoint x="650" y="150" as="targetPoint" />
          </mxGeometry>
        </mxCell>
        <mxCell id="NA-ehe5iDD0l0HB7df4v-33" value="Создать рисунок на холсте" style="ellipse;whiteSpace=wrap;html=1;" vertex="1" parent="1">
          <mxGeometry x="350" y="240" width="80" height="40" as="geometry" />
        </mxCell>
        <mxCell id="NA-ehe5iDD0l0HB7df4v-34" value="Сохранить графическое изображение" style="ellipse;whiteSpace=wrap;html=1;" vertex="1" parent="1">
          <mxGeometry x="190" y="-10" width="90" height="50" as="geometry" />
        </mxCell>
        <mxCell id="NA-ehe5iDD0l0HB7df4v-35" value="Создать определенный рисунок на холсте" style="ellipse;whiteSpace=wrap;html=1;" vertex="1" parent="1">
          <mxGeometry x="330" y="130" width="90" height="50" as="geometry" />
        </mxCell>
        <mxCell id="NA-ehe5iDD0l0HB7df4v-36" value="" style="endArrow=none;html=1;rounded=0;" edge="1" parent="1">
          <mxGeometry width="50" height="50" relative="1" as="geometry">
            <mxPoint x="230" y="150" as="sourcePoint" />
            <mxPoint x="330" y="150" as="targetPoint" />
          </mxGeometry>
        </mxCell>
        <mxCell id="NA-ehe5iDD0l0HB7df4v-39" value="" style="endArrow=block;dashed=1;endFill=0;endSize=12;html=1;rounded=0;exitX=0.435;exitY=0.012;exitDx=0;exitDy=0;exitPerimeter=0;" edge="1" parent="1" source="NA-ehe5iDD0l0HB7df4v-33" target="NA-ehe5iDD0l0HB7df4v-35">
          <mxGeometry width="160" relative="1" as="geometry">
            <mxPoint x="370" y="210" as="sourcePoint" />
            <mxPoint x="530" y="210" as="targetPoint" />
          </mxGeometry>
        </mxCell>
        <mxCell id="NA-ehe5iDD0l0HB7df4v-40" value="Text" style="edgeLabel;html=1;align=center;verticalAlign=middle;resizable=0;points=[];" vertex="1" connectable="0" parent="NA-ehe5iDD0l0HB7df4v-39">
          <mxGeometry x="0.0254" relative="1" as="geometry">
            <mxPoint as="offset" />
          </mxGeometry>
        </mxCell>
        <mxCell id="NA-ehe5iDD0l0HB7df4v-41" value="include" style="edgeLabel;html=1;align=center;verticalAlign=middle;resizable=0;points=[];" vertex="1" connectable="0" parent="NA-ehe5iDD0l0HB7df4v-39">
          <mxGeometry x="-0.0252" y="-1" relative="1" as="geometry">
            <mxPoint as="offset" />
          </mxGeometry>
        </mxCell>
        <mxCell id="NA-ehe5iDD0l0HB7df4v-42" value="Отрисовка риснука" style="ellipse;whiteSpace=wrap;html=1;" vertex="1" parent="1">
          <mxGeometry x="530" y="260" width="100" height="40" as="geometry" />
        </mxCell>
        <mxCell id="NA-ehe5iDD0l0HB7df4v-43" value="" style="endArrow=block;dashed=1;endFill=0;endSize=12;html=1;rounded=0;exitX=0.01;exitY=0.219;exitDx=0;exitDy=0;exitPerimeter=0;" edge="1" parent="1" source="NA-ehe5iDD0l0HB7df4v-42" target="NA-ehe5iDD0l0HB7df4v-35">
          <mxGeometry width="160" relative="1" as="geometry">
            <mxPoint x="460" y="210" as="sourcePoint" />
            <mxPoint x="620" y="210" as="targetPoint" />
          </mxGeometry>
        </mxCell>
        <mxCell id="NA-ehe5iDD0l0HB7df4v-46" value="include" style="edgeLabel;html=1;align=center;verticalAlign=middle;resizable=0;points=[];" vertex="1" connectable="0" parent="NA-ehe5iDD0l0HB7df4v-43">
          <mxGeometry x="-0.2239" y="1" relative="1" as="geometry">
            <mxPoint as="offset" />
          </mxGeometry>
        </mxCell>
        <mxCell id="NA-ehe5iDD0l0HB7df4v-45" value="" style="endArrow=block;dashed=1;endFill=0;endSize=12;html=1;rounded=0;entryX=0.763;entryY=0.995;entryDx=0;entryDy=0;entryPerimeter=0;exitX=0.003;exitY=0.616;exitDx=0;exitDy=0;exitPerimeter=0;" edge="1" parent="1" source="NA-ehe5iDD0l0HB7df4v-42" target="NA-ehe5iDD0l0HB7df4v-33">
          <mxGeometry width="160" relative="1" as="geometry">
            <mxPoint x="380" y="360" as="sourcePoint" />
            <mxPoint x="540" y="360" as="targetPoint" />
          </mxGeometry>
        </mxCell>
        <mxCell id="NA-ehe5iDD0l0HB7df4v-47" value="include" style="edgeLabel;html=1;align=center;verticalAlign=middle;resizable=0;points=[];" vertex="1" connectable="0" parent="NA-ehe5iDD0l0HB7df4v-45">
          <mxGeometry x="-0.0741" y="-1" relative="1" as="geometry">
            <mxPoint as="offset" />
          </mxGeometry>
        </mxCell>
        <mxCell id="NA-ehe5iDD0l0HB7df4v-48" value="изменение рисунка" style="ellipse;whiteSpace=wrap;html=1;" vertex="1" parent="1">
          <mxGeometry x="210" y="290" width="100" height="60" as="geometry" />
        </mxCell>
        <mxCell id="NA-ehe5iDD0l0HB7df4v-49" value="" style="endArrow=block;dashed=1;endFill=0;endSize=12;html=1;rounded=0;exitX=0.021;exitY=0.805;exitDx=0;exitDy=0;exitPerimeter=0;" edge="1" parent="1" source="NA-ehe5iDD0l0HB7df4v-33" target="NA-ehe5iDD0l0HB7df4v-48">
          <mxGeometry width="160" relative="1" as="geometry">
            <mxPoint x="350" y="370" as="sourcePoint" />
            <mxPoint x="510" y="370" as="targetPoint" />
          </mxGeometry>
        </mxCell>
        <mxCell id="NA-ehe5iDD0l0HB7df4v-50" value="extends" style="edgeLabel;html=1;align=center;verticalAlign=middle;resizable=0;points=[];" vertex="1" connectable="0" parent="NA-ehe5iDD0l0HB7df4v-49">
          <mxGeometry x="-0.2827" y="-1" relative="1" as="geometry">
            <mxPoint as="offset" />
          </mxGeometry>
        </mxCell>
        <mxCell id="NA-ehe5iDD0l0HB7df4v-51" value="" style="endArrow=block;dashed=1;endFill=0;endSize=12;html=1;rounded=0;exitX=0.609;exitY=-0.052;exitDx=0;exitDy=0;exitPerimeter=0;" edge="1" parent="1" source="NA-ehe5iDD0l0HB7df4v-34">
          <mxGeometry width="160" relative="1" as="geometry">
            <mxPoint x="170" y="-80" as="sourcePoint" />
            <mxPoint x="340" y="-90" as="targetPoint" />
          </mxGeometry>
        </mxCell>
        <mxCell id="NA-ehe5iDD0l0HB7df4v-52" value="include" style="edgeLabel;html=1;align=center;verticalAlign=middle;resizable=0;points=[];" vertex="1" connectable="0" parent="NA-ehe5iDD0l0HB7df4v-51">
          <mxGeometry x="-0.122" y="1" relative="1" as="geometry">
            <mxPoint as="offset" />
          </mxGeometry>
        </mxCell>
        <mxCell id="NA-ehe5iDD0l0HB7df4v-53" value="сохранить как" style="ellipse;whiteSpace=wrap;html=1;" vertex="1" parent="1">
          <mxGeometry x="315" y="-160" width="120" height="80" as="geometry" />
        </mxCell>
        <mxCell id="NA-ehe5iDD0l0HB7df4v-57" value="" style="swimlane;startSize=0;" vertex="1" parent="1">
          <mxGeometry x="190" y="-170" width="460" height="580" as="geometry" />
        </mxCell>
      </root>
    </mxGraphModel>
  </diagram>
</mxfile>
